<svg version="1.2" xmlns="http://www.w3.org/2000/svg" viewBox="0 0 681 681" width="681" height="681">
	<title>coords222-svg</title>
	<style>
		.s0 { fill: #000000 } 
		.s1 { fill: #000000;stroke: #000000;stroke-miterlimit:100 } 
	</style>
	<path id="B" fill-rule="evenodd" class="s0" d="m438.4 125v-17.5h6q2.7 0 4.2 1.1 1.4 1.2 1.4 3.2 0 1.6-0.7 2.6-0.8 0.9-2.2 1.2 1.7 0.3 2.7 1.5 1 1.2 1 3 0 2.3-1.6 3.6-1.6 1.3-4.6 1.3zm5.8-15.6h-3.5v5.3h3.5q1.8 0 2.6-0.6 0.9-0.7 0.9-2 0-1.3-0.9-2-0.8-0.7-2.6-0.7zm0.3 7.2h-3.8v6.5h3.8q1.9 0 2.8-0.8 1-0.8 1-2.5 0-1.6-1-2.4-0.9-0.8-2.8-0.8z"/>
	<path id="A" fill-rule="evenodd" class="s0" d="m20.2 518l6.6-17.5h2.7l6.7 17.5h-2.5l-1.6-4.5h-7.9l-1.6 4.5zm11.2-6.5l-3.2-8.7-3.2 8.7z"/>
	<path id="Shape 4" class="s1" d="m77.3 635.5l18.2-10.6v21.1z"/>
	<path id="Shape 4 copy" class="s1" d="m626.5 22.3l10.6 18.2h-21.1z"/>
	<path id="Shape 1" class="s0" d="m624.3 33.2h5v604.3h-5z"/>
	<path id="Shape 2" class="s0" d="m74.5 487l-3.3-3.8 396.1-351.6 3.3 3.8z"/>
	<path id="Layer 1" class="s0" d="m628.4 633.4v5h-540.7v-5z"/>
	<g id="Folder 1">
		<path id="1" class="s0" d="m61.7 520v-1.2h2.3v-7.7l-2.5 0.4v-1.2l2.5-0.5h1.4v9h2.2v1.2z"/>
		<path id="x" class="s0" d="m56.6 500.9h2.6l-4.8 6.4 5 6.7h-2.5l-3.8-5.2-3.9 5.2h-2.5l5.1-6.9-4.7-6.2h2.6l3.4 4.7z"/>
		<path id="y" class="s0" d="m91.5 499.9l-5.8 14.3q-0.9 2.4-1.8 3.1-0.8 0.7-2.3 0.7h-1.7v-1.8h1.3q0.9 0 1.3-0.4 0.5-0.5 1.1-2l0.4-1-5.3-12.9h2.3l4.1 10.2 4.1-10.2z"/>
		<path id="1" class="s0" d="m92.7 520v-1.2h2.3v-7.7l-2.5 0.4v-1.2l2.5-0.5h1.4v9h2.2v1.2z"/>
		<path id="," class="s0" d="m71.8 519v-2h2.5v2l-1.9 3.8h-1.5z"/>
		<path id="(" class="s0" d="m41.6 497.8h1.8q-1.5 2.7-2.3 5.3-0.8 2.7-0.8 5.4 0 2.7 0.8 5.3 0.8 2.7 2.3 5.4h-1.8q-1.8-2.8-2.7-5.4-0.8-2.7-0.8-5.3 0-2.6 0.8-5.3 0.9-2.6 2.7-5.4z"/>
		<path id=")" class="s0" d="m102.9 497.8h1.9q1.8 2.8 2.6 5.4 0.9 2.7 0.9 5.3 0 2.6-0.9 5.3-0.8 2.6-2.6 5.4h-1.9q1.6-2.7 2.3-5.4 0.8-2.6 0.8-5.3 0-2.7-0.8-5.4-0.7-2.6-2.3-5.3z"/>
	</g>
	<g id="Folder 2">
		<path id="2" class="s0" d="m479.7 125.8h4.8v1.2h-6.5v-1.2q0.8-0.8 2.2-2.1 1.3-1.4 1.7-1.8 0.6-0.8 0.9-1.3 0.3-0.5 0.3-1 0-0.8-0.6-1.3-0.6-0.5-1.5-0.5-0.6 0-1.4 0.2-0.7 0.2-1.5 0.7v-1.4q0.8-0.3 1.6-0.5 0.7-0.2 1.3-0.2 1.6 0 2.5 0.8 1 0.8 1 2.1 0 0.7-0.3 1.2-0.2 0.6-0.8 1.3-0.2 0.2-1.1 1.2-0.9 0.9-2.6 2.6z"/>
		<path id="x copy" class="s0" d="m473.6 107.9h2.6l-4.8 6.4 5 6.7h-2.5l-3.8-5.2-3.9 5.2h-2.5l5.1-6.9-4.7-6.2h2.6l3.4 4.7z"/>
		<path id="y copy" class="s0" d="m508.5 106.9l-5.8 14.3q-0.9 2.4-1.8 3.1-0.8 0.7-2.3 0.7h-1.7v-1.8h1.3q0.9 0 1.3-0.4 0.5-0.5 1.1-2l0.4-1-5.3-12.9h2.3l4.1 10.2 4.1-10.2z"/>
		<path id="2" class="s0" d="m510.7 125.8h4.8v1.2h-6.5v-1.2q0.8-0.8 2.2-2.1 1.3-1.4 1.7-1.8 0.6-0.8 0.9-1.3 0.3-0.5 0.3-1 0-0.8-0.6-1.3-0.6-0.5-1.5-0.5-0.6 0-1.4 0.2-0.7 0.2-1.5 0.7v-1.4q0.8-0.3 1.6-0.5 0.7-0.2 1.3-0.2 1.6 0 2.5 0.8 1 0.8 1 2.1 0 0.7-0.3 1.2-0.2 0.6-0.8 1.3-0.2 0.2-1.1 1.2-0.9 0.9-2.6 2.6z"/>
		<path id=", copy" class="s0" d="m488.8 126v-2h2.5v2l-1.9 3.8h-1.5z"/>
		<path id="( copy" class="s0" d="m458.6 105.8h1.8q-1.5 2.7-2.3 5.3-0.8 2.7-0.8 5.4 0 2.7 0.8 5.3 0.8 2.7 2.3 5.4h-1.8q-1.8-2.8-2.7-5.5-0.8-2.6-0.8-5.2 0-2.6 0.8-5.3 0.9-2.6 2.7-5.4z"/>
		<path id=") copy" class="s0" d="m519.9 104.8h1.9q1.8 2.8 2.6 5.4 0.9 2.7 0.9 5.3 0 2.6-0.9 5.2-0.8 2.7-2.6 5.5h-1.9q1.6-2.7 2.3-5.4 0.8-2.6 0.8-5.3 0-2.7-0.8-5.4-0.7-2.6-2.3-5.3z"/>
	</g>
	<path id="Shape 3" class="s1" d="m72 489c-1.7 0-3-1.3-3-3 0-1.7 1.3-3 3-3 1.7 0 3 1.3 3 3 0 1.7-1.3 3-3 3z"/>
	<path id="Shape 3 copy" class="s1" d="m470 136c-1.7 0-3-1.3-3-3 0-1.7 1.3-3 3-3 1.7 0 3 1.3 3 3 0 1.7-1.3 3-3 3z"/>
</svg>